<svg width="33" height="32" viewBox="0 0 33 32" fill="none" xmlns="http://www.w3.org/2000/svg">
<path fill-rule="evenodd" clip-rule="evenodd" d="M6.16005 2.80029C4.70202 2.80029 3.52005 3.98226 3.52005 5.44029V10.7203C3.52005 12.1783 4.70202 13.3603 6.16005 13.3603H11.44C12.8981 13.3603 14.08 12.1783 14.08 10.7203V5.44029C14.08 3.98226 12.8981 2.80029 11.44 2.80029H6.16005ZM24.6401 13.3603C27.5561 13.3603 29.9201 10.9964 29.9201 8.08029C29.9201 5.16423 27.5561 2.80029 24.6401 2.80029C21.724 2.80029 19.36 5.16423 19.36 8.08029C19.36 10.9964 21.724 13.3603 24.6401 13.3603ZM14.08 23.9203C14.08 26.8364 11.7161 29.2003 8.80005 29.2003C5.88399 29.2003 3.52005 26.8364 3.52005 23.9203C3.52005 21.0042 5.88399 18.6403 8.80005 18.6403C11.7161 18.6403 14.08 21.0042 14.08 23.9203ZM22 18.6403C20.542 18.6403 19.36 19.8223 19.36 21.2803V26.5603C19.36 28.0183 20.542 29.2003 22 29.2003H27.2801C28.7381 29.2003 29.9201 28.0183 29.9201 26.5603V21.2803C29.9201 19.8223 28.7381 18.6403 27.2801 18.6403H22Z" fill="#7152F3"/>
</svg>
