<svg width="35" height="28" viewBox="0 0 35 28" fill="none" xmlns="http://www.w3.org/2000/svg">
<path d="M34.8078 3.3612C33.5253 3.91582 32.1587 4.28345 30.7339 4.46195C32.1997 3.5992 33.3183 2.24345 33.8443 0.60932C32.4777 1.41257 30.9689 1.97995 29.3609 2.29657C28.0633 0.934445 26.2139 0.0908203 24.1964 0.0908203C20.2821 0.0908203 17.1308 3.22307 17.1308 7.06294C17.1308 7.61545 17.1782 8.1467 17.2946 8.65244C11.4167 8.36982 6.21551 5.59244 2.7215 1.36157C2.1115 2.40495 1.7537 3.5992 1.7537 4.88482C1.7537 7.29882 3.01464 9.43869 4.89421 10.6776C3.75828 10.6563 2.6439 10.3312 1.69981 9.81907C1.69981 9.84032 1.69981 9.86795 1.69981 9.89557C1.69981 13.2828 4.15058 16.0963 7.36438 16.7444C6.78887 16.8996 6.16163 16.9739 5.51067 16.9739C5.05803 16.9739 4.60107 16.9484 4.17213 16.8549C5.0882 19.6153 7.6877 21.6447 10.7786 21.7106C8.37313 23.5657 5.31884 24.6834 2.01235 24.6834C1.43253 24.6834 0.876423 24.6579 0.320313 24.5878C3.4522 26.5789 7.16392 27.7158 11.1666 27.7158C24.177 27.7158 31.29 17.0908 31.29 7.88107C31.29 7.57295 31.2793 7.27544 31.2642 6.98007C32.6674 5.99832 33.8464 4.7722 34.8078 3.3612Z" fill="#F6F6F6"/>
</svg>
