<svg width="35" height="34" viewBox="0 0 35 34" fill="none" xmlns="http://www.w3.org/2000/svg">
<path fill-rule="evenodd" clip-rule="evenodd" d="M11.29 0L24.2228 0C30.1741 0 35.0001 4.75787 35.0001 10.625L35.0001 23.375C35.0001 29.2421 30.1741 34 24.2228 34L11.29 34C5.33878 34 0.512695 29.2421 0.512695 23.375L0.512695 10.625C0.512695 4.75787 5.33878 0 11.29 0ZM24.2225 30.8125C28.3825 30.8125 31.7666 27.4762 31.7666 23.375L31.7666 10.625C31.7666 6.52375 28.3825 3.1875 24.2225 3.1875L11.2897 3.1875C7.12963 3.1875 3.74555 6.52375 3.74555 10.625L3.74555 23.375C3.74555 27.4762 7.12963 30.8125 11.2897 30.8125L24.2225 30.8125Z" fill="#F6F6F6"/>
<path fill-rule="evenodd" clip-rule="evenodd" d="M9.13428 17C9.13428 12.3059 12.9947 8.5 17.7561 8.5C22.5176 8.5 26.378 12.3059 26.378 17C26.378 21.6941 22.5176 25.5 17.7561 25.5C12.9947 25.5 9.13428 21.6941 9.13428 17ZM12.3674 17C12.3674 19.9282 14.7859 22.3125 17.7561 22.3125C20.7263 22.3125 23.1448 19.9282 23.1448 17C23.1448 14.0696 20.7263 11.6875 17.7561 11.6875C14.7859 11.6875 12.3674 14.0696 12.3674 17Z" fill="#F6F6F6"/>
<ellipse cx="27.0248" cy="7.86261" rx="1.14886" ry="1.13262" fill="#F6F6F6"/>
</svg>
