<svg width="18" height="18" viewBox="0 0 18 18" fill="none" xmlns="http://www.w3.org/2000/svg">
<path fill-rule="evenodd" clip-rule="evenodd" d="M6.5625 1.5C6.5625 1.18934 6.31066 0.9375 6 0.9375C5.68934 0.9375 5.4375 1.18934 5.4375 1.5L5.4375 2.70757C3.75727 3.05426 2.46214 4.45474 2.27365 6.1875L15.7263 6.1875C15.5379 4.45474 14.2427 3.05426 12.5625 2.70757L12.5625 1.5C12.5625 1.18934 12.3107 0.9375 12 0.9375C11.6893 0.9375 11.4375 1.18934 11.4375 1.5L11.4375 2.625L6.5625 2.625L6.5625 1.5ZM15.75 7.3125L2.25 7.3125L2.25 12.5C2.25 14.7091 4.04086 16.5 6.25 16.5L11.75 16.5C13.9591 16.5 15.75 14.7091 15.75 12.5L15.75 7.3125ZM11.6733 10.1204C11.8779 9.88662 11.8542 9.53125 11.6204 9.32668C11.3866 9.12211 11.0313 9.1458 10.8267 9.3796L8.67427 11.8395C8.60819 11.915 8.49438 11.9251 8.41603 11.8625L7.10141 10.8108C6.85883 10.6167 6.50485 10.656 6.31078 10.8986C6.11671 11.1412 6.15604 11.4952 6.39863 11.6892L7.71325 12.7409C8.26171 13.1797 9.0584 13.1089 9.52092 12.5803L11.6733 10.1204Z" fill="#28303F"/>
</svg>
