<svg width="56" height="56" viewBox="0 0 56 56" fill="none" xmlns="http://www.w3.org/2000/svg">
<path d="M35 31.5C35 35.366 31.866 38.5 28 38.5C24.134 38.5 21 35.366 21 31.5C21 27.634 24.134 24.5 28 24.5C31.866 24.5 35 27.634 35 31.5Z" stroke="#16151C" stroke-width="1.5"/>
<ellipse cx="27.9998" cy="16.3333" rx="2.33333" ry="2.33333" fill="#16151C"/>
<path d="M49 36.1665V26.8332C49 20.3898 43.7767 15.1665 37.3333 15.1665H37.0393C36.0032 11.141 32.349 8.1665 28 8.1665C23.651 8.1665 19.9968 11.141 18.9607 15.1665H18.6667C12.2233 15.1665 7 20.3898 7 26.8332V36.1665C7 42.6098 12.2233 47.8332 18.6667 47.8332H37.3333C43.7767 47.8332 49 42.6098 49 36.1665Z" stroke="#16151C" stroke-width="1.5" stroke-linejoin="round"/>
</svg>
